<svg width="1363" height="167" viewBox="0 0 1363 167" fill="none" xmlns="http://www.w3.org/2000/svg">
<rect width="1363" height="167" rx="15" fill="#E5E5E5"/>
<path d="M0 15C0 6.71573 6.71573 0 15 0H37V167H15C6.71573 167 0 160.284 0 152V15Z" fill="#0F0F0F"/>
<path d="M100.906 54.9219L93.3945 52.2383V49.0859L103.602 53.375V55.6367L100.906 54.9219ZM93.3945 57.1719L100.918 54.4297L103.602 53.7852V56.0352L93.3945 60.3242V57.1719ZM118.578 54.5117H114.195L114.172 52.0977H117.852C118.5 52.0977 119.031 52.0156 119.445 51.8516C119.859 51.6797 120.168 51.4336 120.371 51.1133C120.582 50.7852 120.688 50.3867 120.688 49.918C120.688 49.3867 120.586 48.957 120.383 48.6289C120.188 48.3008 119.879 48.0625 119.457 47.9141C119.043 47.7656 118.508 47.6914 117.852 47.6914H115.414V62H111.898V44.9375H117.852C118.844 44.9375 119.73 45.0312 120.512 45.2188C121.301 45.4062 121.969 45.6914 122.516 46.0742C123.062 46.457 123.48 46.9414 123.77 47.5273C124.059 48.1055 124.203 48.793 124.203 49.5898C124.203 50.293 124.043 50.9414 123.723 51.5352C123.41 52.1289 122.914 52.6133 122.234 52.9883C121.562 53.3633 120.684 53.5703 119.598 53.6094L118.578 54.5117ZM118.426 62H113.234L114.605 59.2578H118.426C119.043 59.2578 119.547 59.1602 119.938 58.9648C120.328 58.7617 120.617 58.4883 120.805 58.1445C120.992 57.8008 121.086 57.4062 121.086 56.9609C121.086 56.4609 121 56.0273 120.828 55.6602C120.664 55.293 120.398 55.0117 120.031 54.8164C119.664 54.6133 119.18 54.5117 118.578 54.5117H115.191L115.215 52.0977H119.434L120.242 53.0469C121.281 53.0312 122.117 53.2148 122.75 53.5977C123.391 53.9727 123.855 54.4609 124.145 55.0625C124.441 55.6641 124.59 56.3086 124.59 56.9961C124.59 58.0898 124.352 59.0117 123.875 59.7617C123.398 60.5039 122.699 61.0625 121.777 61.4375C120.863 61.8125 119.746 62 118.426 62ZM130.578 49.3203V62H127.191V49.3203H130.578ZM126.98 46.0156C126.98 45.5234 127.152 45.1172 127.496 44.7969C127.84 44.4766 128.301 44.3164 128.879 44.3164C129.449 44.3164 129.906 44.4766 130.25 44.7969C130.602 45.1172 130.777 45.5234 130.777 46.0156C130.777 46.5078 130.602 46.9141 130.25 47.2344C129.906 47.5547 129.449 47.7148 128.879 47.7148C128.301 47.7148 127.84 47.5547 127.496 47.2344C127.152 46.9141 126.98 46.5078 126.98 46.0156ZM136.672 52.0273V62H133.297V49.3203H136.461L136.672 52.0273ZM136.18 55.2148H135.266C135.266 54.2773 135.387 53.4336 135.629 52.6836C135.871 51.9258 136.211 51.2812 136.648 50.75C137.086 50.2109 137.605 49.8008 138.207 49.5195C138.816 49.2305 139.496 49.0859 140.246 49.0859C140.84 49.0859 141.383 49.1719 141.875 49.3438C142.367 49.5156 142.789 49.7891 143.141 50.1641C143.5 50.5391 143.773 51.0352 143.961 51.6523C144.156 52.2695 144.254 53.0234 144.254 53.9141V62H140.855V53.9023C140.855 53.3398 140.777 52.9023 140.621 52.5898C140.465 52.2773 140.234 52.0586 139.93 51.9336C139.633 51.8008 139.266 51.7344 138.828 51.7344C138.375 51.7344 137.98 51.8242 137.645 52.0039C137.316 52.1836 137.043 52.4336 136.824 52.7539C136.613 53.0664 136.453 53.4336 136.344 53.8555C136.234 54.2773 136.18 54.7305 136.18 55.2148ZM154.848 49.3203H157.906V61.5781C157.906 62.7344 157.648 63.7148 157.133 64.5195C156.625 65.332 155.914 65.9453 155 66.3594C154.086 66.7812 153.023 66.9922 151.812 66.9922C151.281 66.9922 150.719 66.9219 150.125 66.7812C149.539 66.6406 148.977 66.4219 148.438 66.125C147.906 65.8281 147.461 65.4531 147.102 65L148.59 63.0078C148.98 63.4609 149.434 63.8125 149.949 64.0625C150.465 64.3203 151.035 64.4492 151.66 64.4492C152.27 64.4492 152.785 64.3359 153.207 64.1094C153.629 63.8906 153.953 63.5664 154.18 63.1367C154.406 62.7148 154.52 62.2031 154.52 61.6016V52.25L154.848 49.3203ZM146.316 55.8125V55.5664C146.316 54.5977 146.434 53.7188 146.668 52.9297C146.91 52.1328 147.25 51.4492 147.688 50.8789C148.133 50.3086 148.672 49.8672 149.305 49.5547C149.938 49.2422 150.652 49.0859 151.449 49.0859C152.293 49.0859 153 49.2422 153.57 49.5547C154.141 49.8672 154.609 50.3125 154.977 50.8906C155.344 51.4609 155.629 52.1367 155.832 52.918C156.043 53.6914 156.207 54.5391 156.324 55.4609V56C156.207 56.8828 156.031 57.7031 155.797 58.4609C155.562 59.2188 155.254 59.8828 154.871 60.4531C154.488 61.0156 154.012 61.4531 153.441 61.7656C152.879 62.0781 152.207 62.2344 151.426 62.2344C150.645 62.2344 149.938 62.0742 149.305 61.7539C148.68 61.4336 148.145 60.9844 147.699 60.4062C147.254 59.8281 146.91 59.1484 146.668 58.3672C146.434 57.5859 146.316 56.7344 146.316 55.8125ZM149.691 55.5664V55.8125C149.691 56.3359 149.742 56.8242 149.844 57.2773C149.945 57.7305 150.102 58.1328 150.312 58.4844C150.531 58.8281 150.801 59.0977 151.121 59.293C151.449 59.4805 151.836 59.5742 152.281 59.5742C152.898 59.5742 153.402 59.4453 153.793 59.1875C154.184 58.9219 154.477 58.5586 154.672 58.0977C154.867 57.6367 154.98 57.1055 155.012 56.5039V54.9688C154.996 54.4766 154.93 54.0352 154.812 53.6445C154.695 53.2461 154.531 52.9062 154.32 52.625C154.109 52.3438 153.836 52.125 153.5 51.9688C153.164 51.8125 152.766 51.7344 152.305 51.7344C151.859 51.7344 151.473 51.8359 151.145 52.0391C150.824 52.2344 150.555 52.5039 150.336 52.8477C150.125 53.1914 149.965 53.5977 149.855 54.0664C149.746 54.5273 149.691 55.0273 149.691 55.5664ZM166.367 62.2344C165.383 62.2344 164.5 62.0781 163.719 61.7656C162.938 61.4453 162.273 61.0039 161.727 60.4414C161.188 59.8789 160.773 59.2266 160.484 58.4844C160.195 57.7344 160.051 56.9375 160.051 56.0938V55.625C160.051 54.6641 160.188 53.7852 160.461 52.9883C160.734 52.1914 161.125 51.5 161.633 50.9141C162.148 50.3281 162.773 49.8789 163.508 49.5664C164.242 49.2461 165.07 49.0859 165.992 49.0859C166.891 49.0859 167.688 49.2344 168.383 49.5312C169.078 49.8281 169.66 50.25 170.129 50.7969C170.605 51.3438 170.965 52 171.207 52.7656C171.449 53.5234 171.57 54.3672 171.57 55.2969V56.7031H161.492V54.4531H168.254V54.1953C168.254 53.7266 168.168 53.3086 167.996 52.9414C167.832 52.5664 167.582 52.2695 167.246 52.0508C166.91 51.832 166.48 51.7227 165.957 51.7227C165.512 51.7227 165.129 51.8203 164.809 52.0156C164.488 52.2109 164.227 52.4844 164.023 52.8359C163.828 53.1875 163.68 53.6016 163.578 54.0781C163.484 54.5469 163.438 55.0625 163.438 55.625V56.0938C163.438 56.6016 163.508 57.0703 163.648 57.5C163.797 57.9297 164.004 58.3008 164.27 58.6133C164.543 58.9258 164.871 59.168 165.254 59.3398C165.645 59.5117 166.086 59.5977 166.578 59.5977C167.188 59.5977 167.754 59.4805 168.277 59.2461C168.809 59.0039 169.266 58.6406 169.648 58.1562L171.289 59.9375C171.023 60.3203 170.66 60.6875 170.199 61.0391C169.746 61.3906 169.199 61.6797 168.559 61.9062C167.918 62.125 167.188 62.2344 166.367 62.2344ZM183.125 44.9375H186.629V56.2109C186.629 57.5234 186.348 58.6289 185.785 59.5273C185.23 60.4258 184.461 61.1016 183.477 61.5547C182.5 62.0078 181.375 62.2344 180.102 62.2344C178.828 62.2344 177.695 62.0078 176.703 61.5547C175.719 61.1016 174.945 60.4258 174.383 59.5273C173.828 58.6289 173.551 57.5234 173.551 56.2109V44.9375H177.066V56.2109C177.066 56.9766 177.188 57.6016 177.43 58.0859C177.672 58.5703 178.02 58.9258 178.473 59.1523C178.934 59.3789 179.477 59.4922 180.102 59.4922C180.742 59.4922 181.285 59.3789 181.73 59.1523C182.184 58.9258 182.527 58.5703 182.762 58.0859C183.004 57.6016 183.125 56.9766 183.125 56.2109V44.9375ZM196.168 58.4961C196.168 58.2539 196.098 58.0352 195.957 57.8398C195.816 57.6445 195.555 57.4648 195.172 57.3008C194.797 57.1289 194.254 56.9727 193.543 56.832C192.902 56.6914 192.305 56.5156 191.75 56.3047C191.203 56.0859 190.727 55.8242 190.32 55.5195C189.922 55.2148 189.609 54.8555 189.383 54.4414C189.156 54.0195 189.043 53.5391 189.043 53C189.043 52.4688 189.156 51.9688 189.383 51.5C189.617 51.0312 189.949 50.6172 190.379 50.2578C190.816 49.8906 191.348 49.6055 191.973 49.4023C192.605 49.1914 193.316 49.0859 194.105 49.0859C195.207 49.0859 196.152 49.2617 196.941 49.6133C197.738 49.9648 198.348 50.4492 198.77 51.0664C199.199 51.6758 199.414 52.3711 199.414 53.1523H196.039C196.039 52.8242 195.969 52.5312 195.828 52.2734C195.695 52.0078 195.484 51.8008 195.195 51.6523C194.914 51.4961 194.547 51.418 194.094 51.418C193.719 51.418 193.395 51.4844 193.121 51.6172C192.848 51.7422 192.637 51.9141 192.488 52.1328C192.348 52.3438 192.277 52.5781 192.277 52.8359C192.277 53.0312 192.316 53.207 192.395 53.3633C192.48 53.5117 192.617 53.6484 192.805 53.7734C192.992 53.8984 193.234 54.0156 193.531 54.125C193.836 54.2266 194.211 54.3203 194.656 54.4062C195.57 54.5938 196.387 54.8398 197.105 55.1445C197.824 55.4414 198.395 55.8477 198.816 56.3633C199.238 56.8711 199.449 57.5391 199.449 58.3672C199.449 58.9297 199.324 59.4453 199.074 59.9141C198.824 60.3828 198.465 60.793 197.996 61.1445C197.527 61.4883 196.965 61.7578 196.309 61.9531C195.66 62.1406 194.93 62.2344 194.117 62.2344C192.938 62.2344 191.938 62.0234 191.117 61.6016C190.305 61.1797 189.688 60.6445 189.266 59.9961C188.852 59.3398 188.645 58.668 188.645 57.9805H191.844C191.859 58.4414 191.977 58.8125 192.195 59.0938C192.422 59.375 192.707 59.5781 193.051 59.7031C193.402 59.8281 193.781 59.8906 194.188 59.8906C194.625 59.8906 194.988 59.832 195.277 59.7148C195.566 59.5898 195.785 59.4258 195.934 59.2227C196.09 59.0117 196.168 58.7695 196.168 58.4961Z" fill="#888888"/>
<path d="M101.822 115.1L108.194 86.0078H111.995L114.061 88.4907L107.271 118H103.074L101.822 115.1ZM100.13 86.0078L105.513 115.319L104.129 118H99.2729L92.4834 86.0078H100.13ZM117.554 115.166L122.894 86.0078H130.518L123.729 118H118.895L117.554 115.166ZM114.742 86.0078L121.268 115.275L119.949 118H115.752L108.809 88.4468L110.962 86.0078H114.742ZM141.021 94.2256V118H133.594V94.2256H141.021ZM133.155 88.0952C133.155 87.0405 133.536 86.1763 134.297 85.5024C135.059 84.8286 136.048 84.4917 137.264 84.4917C138.479 84.4917 139.468 84.8286 140.23 85.5024C140.992 86.1763 141.373 87.0405 141.373 88.0952C141.373 89.1499 140.992 90.0142 140.23 90.688C139.468 91.3618 138.479 91.6987 137.264 91.6987C136.048 91.6987 135.059 91.3618 134.297 90.688C133.536 90.0142 133.155 89.1499 133.155 88.0952ZM153.062 100.114V118H145.657V94.2256H152.579L153.062 100.114ZM160.093 94.0498L159.961 100.927C159.668 100.898 159.273 100.861 158.775 100.817C158.277 100.773 157.859 100.751 157.522 100.751C156.658 100.751 155.911 100.854 155.281 101.059C154.666 101.25 154.153 101.542 153.743 101.938C153.348 102.319 153.055 102.802 152.864 103.388C152.688 103.974 152.608 104.655 152.623 105.432L151.282 104.553C151.282 102.956 151.436 101.506 151.744 100.202C152.066 98.8838 152.52 97.7485 153.106 96.7964C153.692 95.8296 154.402 95.0898 155.237 94.5771C156.072 94.0498 157.01 93.7861 158.05 93.7861C158.416 93.7861 158.775 93.8081 159.126 93.8521C159.493 93.896 159.815 93.9619 160.093 94.0498ZM173.716 118.439C171.783 118.439 170.054 118.139 168.531 117.539C167.007 116.923 165.718 116.081 164.664 115.012C163.624 113.942 162.825 112.712 162.269 111.32C161.727 109.929 161.456 108.457 161.456 106.904V106.069C161.456 104.326 161.697 102.714 162.181 101.235C162.664 99.7407 163.382 98.437 164.334 97.3237C165.286 96.2104 166.48 95.3462 167.916 94.731C169.351 94.1011 171.021 93.7861 172.925 93.7861C174.61 93.7861 176.119 94.0571 177.452 94.5991C178.785 95.1411 179.913 95.9175 180.835 96.9282C181.773 97.939 182.483 99.1621 182.967 100.598C183.465 102.033 183.714 103.645 183.714 105.432V108.442H164.29V103.806H176.485V103.234C176.5 102.443 176.36 101.77 176.067 101.213C175.789 100.656 175.379 100.231 174.837 99.9385C174.295 99.6455 173.636 99.499 172.859 99.499C172.054 99.499 171.387 99.6748 170.86 100.026C170.347 100.378 169.944 100.861 169.651 101.477C169.373 102.077 169.175 102.773 169.058 103.564C168.941 104.355 168.882 105.19 168.882 106.069V106.904C168.882 107.783 169 108.581 169.234 109.299C169.483 110.017 169.834 110.632 170.289 111.145C170.757 111.643 171.314 112.031 171.958 112.309C172.618 112.587 173.365 112.727 174.2 112.727C175.21 112.727 176.207 112.536 177.188 112.155C178.169 111.774 179.012 111.145 179.715 110.266L183.077 114.265C182.593 114.953 181.905 115.62 181.011 116.264C180.132 116.909 179.078 117.436 177.847 117.846C176.617 118.242 175.24 118.439 173.716 118.439ZM195.799 118H188.35V92.292C188.35 90.4463 188.724 88.8936 189.471 87.6338C190.218 86.374 191.272 85.4219 192.635 84.7773C193.997 84.1182 195.608 83.7886 197.469 83.7886C198.113 83.7886 198.721 83.8325 199.292 83.9204C199.864 84.0083 200.42 84.1182 200.962 84.25L200.984 89.6992C200.721 89.626 200.45 89.5747 200.171 89.5454C199.893 89.5161 199.549 89.5015 199.139 89.5015C198.421 89.5015 197.813 89.6113 197.315 89.8311C196.817 90.0361 196.436 90.3511 196.172 90.7759C195.923 91.186 195.799 91.6914 195.799 92.292V118ZM200.413 94.2256V99.3672H184.922V94.2256H200.413ZM210.542 100.114V118H203.138V94.2256H210.059L210.542 100.114ZM217.574 94.0498L217.442 100.927C217.149 100.898 216.753 100.861 216.255 100.817C215.757 100.773 215.34 100.751 215.003 100.751C214.139 100.751 213.392 100.854 212.762 101.059C212.146 101.25 211.634 101.542 211.224 101.938C210.828 102.319 210.535 102.802 210.345 103.388C210.169 103.974 210.088 104.655 210.103 105.432L208.763 104.553C208.763 102.956 208.917 101.506 209.224 100.202C209.546 98.8838 210 97.7485 210.586 96.7964C211.172 95.8296 211.883 95.0898 212.718 94.5771C213.553 94.0498 214.49 93.7861 215.53 93.7861C215.896 93.7861 216.255 93.8081 216.607 93.8521C216.973 93.896 217.295 93.9619 217.574 94.0498ZM231.812 112.023V102.224C231.812 101.55 231.717 100.971 231.526 100.488C231.336 100.004 231.036 99.6309 230.625 99.3672C230.215 99.0889 229.666 98.9497 228.978 98.9497C228.421 98.9497 227.945 99.0449 227.549 99.2354C227.154 99.4258 226.854 99.7114 226.648 100.092C226.443 100.473 226.341 100.957 226.341 101.542H218.936C218.936 100.444 219.178 99.4258 219.661 98.4883C220.159 97.5361 220.862 96.7085 221.771 96.0054C222.693 95.3022 223.792 94.7603 225.066 94.3794C226.355 93.9839 227.791 93.7861 229.373 93.7861C231.263 93.7861 232.947 94.1011 234.427 94.731C235.921 95.3608 237.1 96.3057 237.964 97.5654C238.829 98.8105 239.261 100.378 239.261 102.268V112.001C239.261 113.554 239.349 114.733 239.524 115.539C239.7 116.33 239.949 117.026 240.271 117.626V118H232.845C232.493 117.268 232.229 116.374 232.054 115.319C231.893 114.25 231.812 113.151 231.812 112.023ZM232.713 103.476L232.757 107.431H229.483C228.794 107.431 228.208 107.526 227.725 107.717C227.256 107.907 226.875 108.171 226.583 108.508C226.304 108.83 226.099 109.196 225.967 109.606C225.85 110.017 225.792 110.449 225.792 110.903C225.792 111.342 225.894 111.738 226.099 112.089C226.319 112.426 226.612 112.69 226.978 112.88C227.344 113.071 227.754 113.166 228.208 113.166C229.029 113.166 229.725 113.012 230.296 112.705C230.882 112.382 231.329 111.994 231.636 111.54C231.944 111.086 232.098 110.661 232.098 110.266L233.724 113.298C233.431 113.884 233.094 114.477 232.713 115.078C232.347 115.678 231.885 116.235 231.329 116.748C230.787 117.246 230.12 117.656 229.329 117.978C228.538 118.286 227.579 118.439 226.451 118.439C224.986 118.439 223.638 118.139 222.408 117.539C221.192 116.938 220.218 116.103 219.485 115.034C218.753 113.95 218.387 112.705 218.387 111.298C218.387 110.068 218.606 108.969 219.046 108.002C219.5 107.036 220.181 106.215 221.089 105.542C221.998 104.868 223.155 104.355 224.561 104.003C225.967 103.652 227.623 103.476 229.527 103.476H232.713ZM250.84 99.2573V118H243.436V94.2256H250.379L250.84 99.2573ZM249.939 105.3L248.248 105.344C248.248 103.674 248.445 102.136 248.841 100.729C249.236 99.3232 249.822 98.1001 250.599 97.0601C251.375 96.02 252.327 95.2144 253.455 94.6431C254.598 94.0718 255.916 93.7861 257.41 93.7861C258.45 93.7861 259.395 93.9473 260.245 94.2695C261.094 94.5771 261.827 95.0679 262.442 95.7417C263.057 96.4009 263.526 97.2651 263.848 98.3345C264.185 99.3892 264.354 100.656 264.354 102.136V118H256.949V103.081C256.949 102.07 256.832 101.308 256.597 100.795C256.377 100.283 256.055 99.9385 255.63 99.7627C255.206 99.5869 254.686 99.499 254.07 99.499C253.426 99.499 252.847 99.6455 252.334 99.9385C251.822 100.231 251.382 100.642 251.016 101.169C250.665 101.682 250.394 102.29 250.203 102.993C250.027 103.696 249.939 104.465 249.939 105.3ZM263.519 105.3L261.453 105.344C261.453 103.674 261.636 102.136 262.002 100.729C262.383 99.3232 262.947 98.1001 263.694 97.0601C264.456 96.02 265.401 95.2144 266.529 94.6431C267.657 94.0718 268.968 93.7861 270.462 93.7861C271.546 93.7861 272.542 93.9473 273.45 94.2695C274.358 94.5918 275.142 95.1118 275.801 95.8296C276.46 96.5474 276.973 97.4995 277.339 98.686C277.706 99.8579 277.889 101.308 277.889 103.037V118H270.462V103.037C270.462 102.055 270.345 101.315 270.11 100.817C269.891 100.305 269.568 99.9604 269.144 99.7847C268.719 99.5942 268.213 99.499 267.627 99.499C266.924 99.499 266.316 99.6455 265.804 99.9385C265.291 100.231 264.859 100.642 264.507 101.169C264.17 101.682 263.921 102.29 263.76 102.993C263.599 103.696 263.519 104.465 263.519 105.3ZM293.643 118.439C291.709 118.439 289.981 118.139 288.458 117.539C286.934 116.923 285.645 116.081 284.59 115.012C283.55 113.942 282.752 112.712 282.195 111.32C281.653 109.929 281.382 108.457 281.382 106.904V106.069C281.382 104.326 281.624 102.714 282.107 101.235C282.591 99.7407 283.309 98.437 284.261 97.3237C285.213 96.2104 286.407 95.3462 287.842 94.731C289.278 94.1011 290.948 93.7861 292.852 93.7861C294.537 93.7861 296.045 94.0571 297.378 94.5991C298.711 95.1411 299.839 95.9175 300.762 96.9282C301.7 97.939 302.41 99.1621 302.894 100.598C303.392 102.033 303.641 103.645 303.641 105.432V108.442H284.217V103.806H296.412V103.234C296.426 102.443 296.287 101.77 295.994 101.213C295.716 100.656 295.306 100.231 294.764 99.9385C294.222 99.6455 293.562 99.499 292.786 99.499C291.98 99.499 291.314 99.6748 290.787 100.026C290.274 100.378 289.871 100.861 289.578 101.477C289.3 102.077 289.102 102.773 288.985 103.564C288.868 104.355 288.809 105.19 288.809 106.069V106.904C288.809 107.783 288.926 108.581 289.161 109.299C289.41 110.017 289.761 110.632 290.215 111.145C290.684 111.643 291.241 112.031 291.885 112.309C292.544 112.587 293.292 112.727 294.126 112.727C295.137 112.727 296.133 112.536 297.115 112.155C298.096 111.774 298.938 111.145 299.642 110.266L303.003 114.265C302.52 114.953 301.832 115.62 300.938 116.264C300.059 116.909 299.004 117.436 297.774 117.846C296.543 118.242 295.167 118.439 293.643 118.439ZM319.109 111.32C319.109 110.91 318.97 110.559 318.692 110.266C318.428 109.958 317.959 109.68 317.286 109.431C316.612 109.167 315.667 108.903 314.451 108.64C313.294 108.391 312.203 108.061 311.177 107.651C310.167 107.241 309.28 106.743 308.519 106.157C307.757 105.571 307.156 104.875 306.717 104.069C306.292 103.264 306.08 102.341 306.08 101.301C306.08 100.29 306.292 99.3379 306.717 98.4443C307.156 97.5361 307.793 96.7378 308.628 96.0493C309.478 95.3462 310.511 94.7969 311.727 94.4014C312.942 93.9912 314.327 93.7861 315.879 93.7861C318.018 93.7861 319.864 94.1157 321.417 94.7749C322.969 95.4194 324.163 96.3276 324.998 97.4995C325.848 98.6567 326.272 99.9971 326.272 101.521H318.868C318.868 100.92 318.765 100.407 318.56 99.9824C318.37 99.5576 318.055 99.2354 317.615 99.0156C317.176 98.7812 316.59 98.6641 315.857 98.6641C315.345 98.6641 314.876 98.7593 314.451 98.9497C314.041 99.1401 313.711 99.4038 313.462 99.7407C313.213 100.078 313.089 100.473 313.089 100.927C313.089 101.25 313.162 101.542 313.309 101.806C313.47 102.055 313.711 102.29 314.034 102.509C314.356 102.714 314.766 102.905 315.264 103.081C315.762 103.242 316.363 103.388 317.066 103.52C318.663 103.813 320.157 104.23 321.548 104.772C322.94 105.314 324.068 106.083 324.932 107.08C325.811 108.076 326.25 109.416 326.25 111.101C326.25 112.155 326.009 113.129 325.525 114.023C325.042 114.902 324.346 115.678 323.438 116.352C322.53 117.011 321.438 117.524 320.164 117.89C318.89 118.256 317.454 118.439 315.857 118.439C313.587 118.439 311.668 118.037 310.101 117.231C308.533 116.411 307.347 115.385 306.541 114.155C305.75 112.91 305.354 111.65 305.354 110.375H312.254C312.283 111.108 312.459 111.708 312.781 112.177C313.118 112.646 313.565 112.99 314.122 113.21C314.678 113.43 315.323 113.54 316.055 113.54C316.729 113.54 317.286 113.444 317.725 113.254C318.179 113.063 318.523 112.807 318.758 112.485C318.992 112.148 319.109 111.76 319.109 111.32Z" fill="#0F0F0F"/>
<path d="M1363 15C1363 6.71573 1356.28 0 1348 0H1134V167H1348C1356.28 167 1363 160.284 1363 152V15Z" fill="#217DDD"/>
<path fill-rule="evenodd" clip-rule="evenodd" d="M1203 49C1203 47.8954 1203.9 47 1205 47H1292.5C1293.6 47 1294.5 47.8954 1294.5 49V118.996C1294.5 120.101 1293.6 120.996 1292.5 120.996H1205C1203.9 120.996 1203 120.101 1203 118.996V49ZM1207 51V55.4945H1290.5V51H1207ZM1290.5 59.4945H1235.44V116.996H1290.5V59.4945ZM1231.44 116.996V59.4945H1207V116.996H1231.44Z" fill="white"/>
<path fill-rule="evenodd" clip-rule="evenodd" d="M1209.97 64.8004C1209.97 63.6958 1210.87 62.8004 1211.97 62.8004H1225.97C1227.08 62.8004 1227.97 63.6958 1227.97 64.8004V84.1956C1227.97 85.3001 1227.08 86.1956 1225.97 86.1956H1211.97C1210.87 86.1956 1209.97 85.3001 1209.97 84.1956V64.8004ZM1213.97 66.8004V82.1956H1223.97V66.8004H1213.97ZM1239.58 65.6964C1239.58 64.5918 1240.47 63.6964 1241.58 63.6964H1284.5C1285.61 63.6964 1286.5 64.5918 1286.5 65.6964V111.905C1286.5 113.01 1285.61 113.905 1284.5 113.905H1241.58C1240.47 113.905 1239.58 113.01 1239.58 111.905V65.6964ZM1243.58 67.6964V109.905H1282.5V67.6964H1243.58ZM1209.81 95.9363C1209.81 94.8317 1210.71 93.9363 1211.81 93.9363H1220.73C1221.84 93.9363 1222.73 94.8317 1222.73 95.9363C1222.73 97.0409 1221.84 97.9363 1220.73 97.9363H1211.81C1210.71 97.9363 1209.81 97.0409 1209.81 95.9363ZM1209.81 102.936C1209.81 101.832 1210.71 100.936 1211.81 100.936H1226.35C1227.46 100.936 1228.35 101.832 1228.35 102.936C1228.35 104.041 1227.46 104.936 1226.35 104.936H1211.81C1210.71 104.936 1209.81 104.041 1209.81 102.936ZM1209.81 109.936C1209.81 108.832 1210.71 107.936 1211.81 107.936H1220.73C1221.84 107.936 1222.73 108.832 1222.73 109.936C1222.73 111.041 1221.84 111.936 1220.73 111.936H1211.81C1210.71 111.936 1209.81 111.041 1209.81 109.936Z" fill="white"/>
</svg>
