<svg width="1363" height="167" viewBox="0 0 1363 167" fill="none" xmlns="http://www.w3.org/2000/svg">
<rect width="1363" height="167" rx="15" fill="#E5E5E5"/>
<path d="M0 15C0 6.71573 6.71573 0 15 0H37V167H15C6.71573 167 0 160.284 0 152V15Z" fill="#0F0F0F"/>
<path d="M100.906 54.9219L93.3945 52.2383V49.0859L103.602 53.375V55.6367L100.906 54.9219ZM93.3945 57.1719L100.918 54.4297L103.602 53.7852V56.0352L93.3945 60.3242V57.1719ZM118.578 54.5117H114.195L114.172 52.0977H117.852C118.5 52.0977 119.031 52.0156 119.445 51.8516C119.859 51.6797 120.168 51.4336 120.371 51.1133C120.582 50.7852 120.688 50.3867 120.688 49.918C120.688 49.3867 120.586 48.957 120.383 48.6289C120.188 48.3008 119.879 48.0625 119.457 47.9141C119.043 47.7656 118.508 47.6914 117.852 47.6914H115.414V62H111.898V44.9375H117.852C118.844 44.9375 119.73 45.0312 120.512 45.2188C121.301 45.4062 121.969 45.6914 122.516 46.0742C123.062 46.457 123.48 46.9414 123.77 47.5273C124.059 48.1055 124.203 48.793 124.203 49.5898C124.203 50.293 124.043 50.9414 123.723 51.5352C123.41 52.1289 122.914 52.6133 122.234 52.9883C121.562 53.3633 120.684 53.5703 119.598 53.6094L118.578 54.5117ZM118.426 62H113.234L114.605 59.2578H118.426C119.043 59.2578 119.547 59.1602 119.938 58.9648C120.328 58.7617 120.617 58.4883 120.805 58.1445C120.992 57.8008 121.086 57.4062 121.086 56.9609C121.086 56.4609 121 56.0273 120.828 55.6602C120.664 55.293 120.398 55.0117 120.031 54.8164C119.664 54.6133 119.18 54.5117 118.578 54.5117H115.191L115.215 52.0977H119.434L120.242 53.0469C121.281 53.0312 122.117 53.2148 122.75 53.5977C123.391 53.9727 123.855 54.4609 124.145 55.0625C124.441 55.6641 124.59 56.3086 124.59 56.9961C124.59 58.0898 124.352 59.0117 123.875 59.7617C123.398 60.5039 122.699 61.0625 121.777 61.4375C120.863 61.8125 119.746 62 118.426 62ZM130.578 49.3203V62H127.191V49.3203H130.578ZM126.98 46.0156C126.98 45.5234 127.152 45.1172 127.496 44.7969C127.84 44.4766 128.301 44.3164 128.879 44.3164C129.449 44.3164 129.906 44.4766 130.25 44.7969C130.602 45.1172 130.777 45.5234 130.777 46.0156C130.777 46.5078 130.602 46.9141 130.25 47.2344C129.906 47.5547 129.449 47.7148 128.879 47.7148C128.301 47.7148 127.84 47.5547 127.496 47.2344C127.152 46.9141 126.98 46.5078 126.98 46.0156ZM136.672 52.0273V62H133.297V49.3203H136.461L136.672 52.0273ZM136.18 55.2148H135.266C135.266 54.2773 135.387 53.4336 135.629 52.6836C135.871 51.9258 136.211 51.2812 136.648 50.75C137.086 50.2109 137.605 49.8008 138.207 49.5195C138.816 49.2305 139.496 49.0859 140.246 49.0859C140.84 49.0859 141.383 49.1719 141.875 49.3438C142.367 49.5156 142.789 49.7891 143.141 50.1641C143.5 50.5391 143.773 51.0352 143.961 51.6523C144.156 52.2695 144.254 53.0234 144.254 53.9141V62H140.855V53.9023C140.855 53.3398 140.777 52.9023 140.621 52.5898C140.465 52.2773 140.234 52.0586 139.93 51.9336C139.633 51.8008 139.266 51.7344 138.828 51.7344C138.375 51.7344 137.98 51.8242 137.645 52.0039C137.316 52.1836 137.043 52.4336 136.824 52.7539C136.613 53.0664 136.453 53.4336 136.344 53.8555C136.234 54.2773 136.18 54.7305 136.18 55.2148ZM154.848 49.3203H157.906V61.5781C157.906 62.7344 157.648 63.7148 157.133 64.5195C156.625 65.332 155.914 65.9453 155 66.3594C154.086 66.7812 153.023 66.9922 151.812 66.9922C151.281 66.9922 150.719 66.9219 150.125 66.7812C149.539 66.6406 148.977 66.4219 148.438 66.125C147.906 65.8281 147.461 65.4531 147.102 65L148.59 63.0078C148.98 63.4609 149.434 63.8125 149.949 64.0625C150.465 64.3203 151.035 64.4492 151.66 64.4492C152.27 64.4492 152.785 64.3359 153.207 64.1094C153.629 63.8906 153.953 63.5664 154.18 63.1367C154.406 62.7148 154.52 62.2031 154.52 61.6016V52.25L154.848 49.3203ZM146.316 55.8125V55.5664C146.316 54.5977 146.434 53.7188 146.668 52.9297C146.91 52.1328 147.25 51.4492 147.688 50.8789C148.133 50.3086 148.672 49.8672 149.305 49.5547C149.938 49.2422 150.652 49.0859 151.449 49.0859C152.293 49.0859 153 49.2422 153.57 49.5547C154.141 49.8672 154.609 50.3125 154.977 50.8906C155.344 51.4609 155.629 52.1367 155.832 52.918C156.043 53.6914 156.207 54.5391 156.324 55.4609V56C156.207 56.8828 156.031 57.7031 155.797 58.4609C155.562 59.2188 155.254 59.8828 154.871 60.4531C154.488 61.0156 154.012 61.4531 153.441 61.7656C152.879 62.0781 152.207 62.2344 151.426 62.2344C150.645 62.2344 149.938 62.0742 149.305 61.7539C148.68 61.4336 148.145 60.9844 147.699 60.4062C147.254 59.8281 146.91 59.1484 146.668 58.3672C146.434 57.5859 146.316 56.7344 146.316 55.8125ZM149.691 55.5664V55.8125C149.691 56.3359 149.742 56.8242 149.844 57.2773C149.945 57.7305 150.102 58.1328 150.312 58.4844C150.531 58.8281 150.801 59.0977 151.121 59.293C151.449 59.4805 151.836 59.5742 152.281 59.5742C152.898 59.5742 153.402 59.4453 153.793 59.1875C154.184 58.9219 154.477 58.5586 154.672 58.0977C154.867 57.6367 154.98 57.1055 155.012 56.5039V54.9688C154.996 54.4766 154.93 54.0352 154.812 53.6445C154.695 53.2461 154.531 52.9062 154.32 52.625C154.109 52.3438 153.836 52.125 153.5 51.9688C153.164 51.8125 152.766 51.7344 152.305 51.7344C151.859 51.7344 151.473 51.8359 151.145 52.0391C150.824 52.2344 150.555 52.5039 150.336 52.8477C150.125 53.1914 149.965 53.5977 149.855 54.0664C149.746 54.5273 149.691 55.0273 149.691 55.5664ZM166.367 62.2344C165.383 62.2344 164.5 62.0781 163.719 61.7656C162.938 61.4453 162.273 61.0039 161.727 60.4414C161.188 59.8789 160.773 59.2266 160.484 58.4844C160.195 57.7344 160.051 56.9375 160.051 56.0938V55.625C160.051 54.6641 160.188 53.7852 160.461 52.9883C160.734 52.1914 161.125 51.5 161.633 50.9141C162.148 50.3281 162.773 49.8789 163.508 49.5664C164.242 49.2461 165.07 49.0859 165.992 49.0859C166.891 49.0859 167.688 49.2344 168.383 49.5312C169.078 49.8281 169.66 50.25 170.129 50.7969C170.605 51.3438 170.965 52 171.207 52.7656C171.449 53.5234 171.57 54.3672 171.57 55.2969V56.7031H161.492V54.4531H168.254V54.1953C168.254 53.7266 168.168 53.3086 167.996 52.9414C167.832 52.5664 167.582 52.2695 167.246 52.0508C166.91 51.832 166.48 51.7227 165.957 51.7227C165.512 51.7227 165.129 51.8203 164.809 52.0156C164.488 52.2109 164.227 52.4844 164.023 52.8359C163.828 53.1875 163.68 53.6016 163.578 54.0781C163.484 54.5469 163.438 55.0625 163.438 55.625V56.0938C163.438 56.6016 163.508 57.0703 163.648 57.5C163.797 57.9297 164.004 58.3008 164.27 58.6133C164.543 58.9258 164.871 59.168 165.254 59.3398C165.645 59.5117 166.086 59.5977 166.578 59.5977C167.188 59.5977 167.754 59.4805 168.277 59.2461C168.809 59.0039 169.266 58.6406 169.648 58.1562L171.289 59.9375C171.023 60.3203 170.66 60.6875 170.199 61.0391C169.746 61.3906 169.199 61.6797 168.559 61.9062C167.918 62.125 167.188 62.2344 166.367 62.2344ZM183.125 44.9375H186.629V56.2109C186.629 57.5234 186.348 58.6289 185.785 59.5273C185.23 60.4258 184.461 61.1016 183.477 61.5547C182.5 62.0078 181.375 62.2344 180.102 62.2344C178.828 62.2344 177.695 62.0078 176.703 61.5547C175.719 61.1016 174.945 60.4258 174.383 59.5273C173.828 58.6289 173.551 57.5234 173.551 56.2109V44.9375H177.066V56.2109C177.066 56.9766 177.188 57.6016 177.43 58.0859C177.672 58.5703 178.02 58.9258 178.473 59.1523C178.934 59.3789 179.477 59.4922 180.102 59.4922C180.742 59.4922 181.285 59.3789 181.73 59.1523C182.184 58.9258 182.527 58.5703 182.762 58.0859C183.004 57.6016 183.125 56.9766 183.125 56.2109V44.9375ZM196.168 58.4961C196.168 58.2539 196.098 58.0352 195.957 57.8398C195.816 57.6445 195.555 57.4648 195.172 57.3008C194.797 57.1289 194.254 56.9727 193.543 56.832C192.902 56.6914 192.305 56.5156 191.75 56.3047C191.203 56.0859 190.727 55.8242 190.32 55.5195C189.922 55.2148 189.609 54.8555 189.383 54.4414C189.156 54.0195 189.043 53.5391 189.043 53C189.043 52.4688 189.156 51.9688 189.383 51.5C189.617 51.0312 189.949 50.6172 190.379 50.2578C190.816 49.8906 191.348 49.6055 191.973 49.4023C192.605 49.1914 193.316 49.0859 194.105 49.0859C195.207 49.0859 196.152 49.2617 196.941 49.6133C197.738 49.9648 198.348 50.4492 198.77 51.0664C199.199 51.6758 199.414 52.3711 199.414 53.1523H196.039C196.039 52.8242 195.969 52.5312 195.828 52.2734C195.695 52.0078 195.484 51.8008 195.195 51.6523C194.914 51.4961 194.547 51.418 194.094 51.418C193.719 51.418 193.395 51.4844 193.121 51.6172C192.848 51.7422 192.637 51.9141 192.488 52.1328C192.348 52.3438 192.277 52.5781 192.277 52.8359C192.277 53.0312 192.316 53.207 192.395 53.3633C192.48 53.5117 192.617 53.6484 192.805 53.7734C192.992 53.8984 193.234 54.0156 193.531 54.125C193.836 54.2266 194.211 54.3203 194.656 54.4062C195.57 54.5938 196.387 54.8398 197.105 55.1445C197.824 55.4414 198.395 55.8477 198.816 56.3633C199.238 56.8711 199.449 57.5391 199.449 58.3672C199.449 58.9297 199.324 59.4453 199.074 59.9141C198.824 60.3828 198.465 60.793 197.996 61.1445C197.527 61.4883 196.965 61.7578 196.309 61.9531C195.66 62.1406 194.93 62.2344 194.117 62.2344C192.938 62.2344 191.938 62.0234 191.117 61.6016C190.305 61.1797 189.688 60.6445 189.266 59.9961C188.852 59.3398 188.645 58.668 188.645 57.9805H191.844C191.859 58.4414 191.977 58.8125 192.195 59.0938C192.422 59.375 192.707 59.5781 193.051 59.7031C193.402 59.8281 193.781 59.8906 194.188 59.8906C194.625 59.8906 194.988 59.832 195.277 59.7148C195.566 59.5898 195.785 59.4258 195.934 59.2227C196.09 59.0117 196.168 58.7695 196.168 58.4961Z" fill="#888888"/>
<path d="M115.994 98.708V104.641H99.5806V98.708H115.994ZM102.151 86.0078V118H94.439V86.0078H102.151ZM121.18 86.0078V118H113.489V86.0078H121.18ZM124.805 106.354V105.893C124.805 104.15 125.054 102.546 125.552 101.081C126.05 99.6016 126.783 98.3198 127.75 97.2358C128.716 96.1519 129.91 95.3096 131.331 94.709C132.752 94.0938 134.393 93.7861 136.253 93.7861C138.128 93.7861 139.776 94.0938 141.197 94.709C142.632 95.3096 143.833 96.1519 144.8 97.2358C145.767 98.3198 146.5 99.6016 146.998 101.081C147.496 102.546 147.745 104.15 147.745 105.893V106.354C147.745 108.083 147.496 109.687 146.998 111.167C146.5 112.631 145.767 113.913 144.8 115.012C143.833 116.096 142.64 116.938 141.219 117.539C139.798 118.139 138.157 118.439 136.297 118.439C134.437 118.439 132.789 118.139 131.353 117.539C129.917 116.938 128.716 116.096 127.75 115.012C126.783 113.913 126.05 112.631 125.552 111.167C125.054 109.687 124.805 108.083 124.805 106.354ZM132.21 105.893V106.354C132.21 107.248 132.276 108.083 132.408 108.859C132.54 109.636 132.759 110.317 133.067 110.903C133.375 111.474 133.792 111.921 134.319 112.243C134.847 112.565 135.506 112.727 136.297 112.727C137.073 112.727 137.718 112.565 138.23 112.243C138.758 111.921 139.175 111.474 139.483 110.903C139.791 110.317 140.01 109.636 140.142 108.859C140.274 108.083 140.34 107.248 140.34 106.354V105.893C140.34 105.029 140.274 104.216 140.142 103.454C140.01 102.678 139.791 101.997 139.483 101.411C139.175 100.81 138.758 100.341 138.23 100.004C137.703 99.6675 137.044 99.499 136.253 99.499C135.477 99.499 134.825 99.6675 134.297 100.004C133.785 100.341 133.375 100.81 133.067 101.411C132.759 101.997 132.54 102.678 132.408 103.454C132.276 104.216 132.21 105.029 132.21 105.893ZM158.27 110.925L162.664 94.2256H167.3L165.652 102.597L161.302 118H157.588L158.27 110.925ZM156.534 94.2256L159.258 110.793L159.566 118H155.062L149.437 94.2256H156.534ZM171.211 110.441L173.958 94.2256H181.055L175.474 118H170.97L171.211 110.441ZM167.828 94.2256L172.266 110.881L172.947 118H169.19L164.927 102.641L163.345 94.2256H167.828ZM209.466 86.0078V118H201.753V86.0078H209.466ZM219.09 86.0078V91.9624H192.349V86.0078H219.09ZM216.475 106.354V105.893C216.475 104.15 216.724 102.546 217.222 101.081C217.72 99.6016 218.453 98.3198 219.419 97.2358C220.386 96.1519 221.58 95.3096 223.001 94.709C224.422 94.0938 226.062 93.7861 227.923 93.7861C229.798 93.7861 231.446 94.0938 232.867 94.709C234.302 95.3096 235.503 96.1519 236.47 97.2358C237.437 98.3198 238.169 99.6016 238.667 101.081C239.166 102.546 239.415 104.15 239.415 105.893V106.354C239.415 108.083 239.166 109.687 238.667 111.167C238.169 112.631 237.437 113.913 236.47 115.012C235.503 116.096 234.31 116.938 232.889 117.539C231.468 118.139 229.827 118.439 227.967 118.439C226.106 118.439 224.458 118.139 223.023 117.539C221.587 116.938 220.386 116.096 219.419 115.012C218.453 113.913 217.72 112.631 217.222 111.167C216.724 109.687 216.475 108.083 216.475 106.354ZM223.88 105.893V106.354C223.88 107.248 223.946 108.083 224.078 108.859C224.209 109.636 224.429 110.317 224.737 110.903C225.044 111.474 225.462 111.921 225.989 112.243C226.517 112.565 227.176 112.727 227.967 112.727C228.743 112.727 229.388 112.565 229.9 112.243C230.428 111.921 230.845 111.474 231.153 110.903C231.46 110.317 231.68 109.636 231.812 108.859C231.944 108.083 232.01 107.248 232.01 106.354V105.893C232.01 105.029 231.944 104.216 231.812 103.454C231.68 102.678 231.46 101.997 231.153 101.411C230.845 100.81 230.428 100.341 229.9 100.004C229.373 99.6675 228.714 99.499 227.923 99.499C227.146 99.499 226.495 99.6675 225.967 100.004C225.455 100.341 225.044 100.81 224.737 101.411C224.429 101.997 224.209 102.678 224.078 103.454C223.946 104.216 223.88 105.029 223.88 105.893ZM254.268 86.0078H266.858C269.319 86.0078 271.458 86.374 273.274 87.1064C275.091 87.8389 276.49 88.9229 277.471 90.3584C278.467 91.7939 278.965 93.5664 278.965 95.6758C278.965 97.5068 278.68 99.0376 278.108 100.268C277.537 101.499 276.739 102.517 275.713 103.322C274.703 104.113 273.523 104.765 272.176 105.278L269.649 106.706H259.08L259.036 100.751H266.858C267.84 100.751 268.653 100.576 269.297 100.224C269.942 99.8726 270.425 99.3745 270.748 98.73C271.084 98.0708 271.253 97.2871 271.253 96.3789C271.253 95.4561 271.084 94.665 270.748 94.0059C270.411 93.3467 269.913 92.8413 269.253 92.4897C268.609 92.1382 267.811 91.9624 266.858 91.9624H261.98V118H254.268V86.0078ZM271.78 118L264.705 103.85L272.879 103.806L280.042 117.67V118H271.78ZM297.159 112.221V94.2256H304.585V118H297.642L297.159 112.221ZM297.862 107.387L299.795 107.343C299.795 108.94 299.605 110.419 299.224 111.782C298.843 113.129 298.279 114.301 297.532 115.297C296.8 116.293 295.892 117.07 294.808 117.626C293.738 118.168 292.5 118.439 291.094 118.439C289.922 118.439 288.846 118.278 287.864 117.956C286.897 117.619 286.062 117.099 285.359 116.396C284.656 115.678 284.107 114.763 283.711 113.649C283.331 112.521 283.14 111.174 283.14 109.606V94.2256H290.545V109.65C290.545 110.178 290.611 110.632 290.743 111.013C290.875 111.394 291.065 111.716 291.314 111.979C291.563 112.229 291.871 112.419 292.237 112.551C292.618 112.668 293.05 112.727 293.533 112.727C294.646 112.727 295.518 112.492 296.148 112.023C296.778 111.555 297.217 110.917 297.466 110.112C297.73 109.306 297.862 108.398 297.862 107.387ZM315.945 99.3013V118H308.541V94.2256H315.484L315.945 99.3013ZM315.066 105.3L313.331 105.344C313.331 103.527 313.55 101.909 313.99 100.488C314.429 99.0522 315.052 97.8364 315.857 96.8403C316.663 95.8442 317.623 95.0898 318.736 94.5771C319.864 94.0498 321.116 93.7861 322.493 93.7861C323.592 93.7861 324.595 93.9473 325.503 94.2695C326.426 94.5918 327.217 95.1118 327.876 95.8296C328.55 96.5474 329.063 97.4995 329.415 98.686C329.781 99.8579 329.964 101.308 329.964 103.037V118H322.515V103.015C322.515 102.062 322.383 101.337 322.12 100.839C321.856 100.327 321.475 99.9751 320.977 99.7847C320.479 99.5942 319.871 99.499 319.153 99.499C318.392 99.499 317.747 99.6455 317.22 99.9385C316.692 100.231 316.268 100.642 315.945 101.169C315.638 101.682 315.411 102.29 315.264 102.993C315.132 103.696 315.066 104.465 315.066 105.3ZM345.85 107.871H339.544C339.544 106.582 339.632 105.446 339.808 104.465C339.998 103.469 340.32 102.575 340.774 101.784C341.229 100.993 341.844 100.261 342.62 99.5869C343.309 99.0156 343.902 98.4663 344.4 97.939C344.898 97.4116 345.279 96.877 345.542 96.335C345.806 95.793 345.938 95.2144 345.938 94.5991C345.938 93.8374 345.828 93.2148 345.608 92.7314C345.403 92.248 345.088 91.8892 344.664 91.6548C344.253 91.4058 343.733 91.2812 343.104 91.2812C342.591 91.2812 342.107 91.4058 341.653 91.6548C341.214 91.9038 340.855 92.292 340.577 92.8193C340.298 93.332 340.145 94.0132 340.115 94.8628H332.667C332.71 92.6802 333.194 90.9077 334.117 89.5454C335.054 88.1685 336.299 87.165 337.852 86.5352C339.419 85.8906 341.17 85.5684 343.104 85.5684C345.242 85.5684 347.081 85.8979 348.619 86.5571C350.157 87.2163 351.336 88.1978 352.156 89.5015C352.977 90.7905 353.387 92.3799 353.387 94.2695C353.387 95.5293 353.145 96.6279 352.662 97.5654C352.193 98.4883 351.556 99.3525 350.75 100.158C349.959 100.949 349.073 101.799 348.091 102.707C347.242 103.454 346.663 104.216 346.355 104.992C346.048 105.754 345.879 106.713 345.85 107.871ZM338.643 114.55C338.643 113.496 339.024 112.617 339.786 111.914C340.547 111.196 341.536 110.837 342.752 110.837C343.968 110.837 344.957 111.196 345.718 111.914C346.48 112.617 346.861 113.496 346.861 114.55C346.861 115.605 346.48 116.491 345.718 117.209C344.957 117.912 343.968 118.264 342.752 118.264C341.536 118.264 340.547 117.912 339.786 117.209C339.024 116.491 338.643 115.605 338.643 114.55Z" fill="#0F0F0F"/>
<path d="M1363 15C1363 6.71573 1356.28 0 1348 0H1134V167H1348C1356.28 167 1363 160.284 1363 152V15Z" fill="#217DDD"/>
<path d="M1260.77 81.3079C1263.96 81.3079 1267.09 82.2553 1269.74 84.0303C1272.4 85.8053 1274.47 88.3282 1275.69 91.2799C1276.92 94.2316 1277.24 97.4796 1276.61 100.613C1275.99 103.747 1274.45 106.625 1272.19 108.884C1269.93 111.143 1267.05 112.682 1263.92 113.305C1260.79 113.928 1257.54 113.608 1254.59 112.386C1251.64 111.163 1249.11 109.093 1247.34 106.436C1245.56 103.78 1244.62 100.657 1244.62 97.4617C1244.62 93.1774 1246.32 89.0686 1249.35 86.0392C1252.38 83.0098 1256.49 81.3079 1260.77 81.3079ZM1260.77 75.9233C1256.51 75.9233 1252.35 77.1865 1248.8 79.5532C1245.26 81.9198 1242.5 85.2837 1240.87 89.2193C1239.24 93.1549 1238.81 97.4856 1239.64 101.664C1240.48 105.842 1242.53 109.679 1245.54 112.692C1248.55 115.704 1252.39 117.755 1256.57 118.586C1260.75 119.417 1265.08 118.991 1269.01 117.361C1272.95 115.73 1276.31 112.97 1278.68 109.428C1281.04 105.886 1282.31 101.722 1282.31 97.4617C1282.31 91.7493 1280.04 86.271 1276 82.2317C1271.96 78.1925 1266.48 75.9233 1260.77 75.9233Z" fill="white"/>
<path d="M1274.23 49H1220.38C1218.96 49 1217.59 49.5673 1216.58 50.5771C1215.57 51.5869 1215 52.9565 1215 54.3846V108.231C1215 109.659 1215.57 111.028 1216.58 112.038C1217.59 113.048 1218.96 113.615 1220.38 113.615H1231.15V108.231H1220.38V70.5384H1279.62V54.3846C1279.62 52.9565 1279.05 51.5869 1278.04 50.5771C1277.03 49.5673 1275.66 49 1274.23 49ZM1220.38 65.1538V54.3846H1274.23V65.1538H1220.38Z" fill="white"/>
<path d="M1255.38 89.3849V105.539L1268.85 97.4618L1255.38 89.3849Z" fill="white"/>
</svg>
