<svg width="1363" height="167" viewBox="0 0 1363 167" fill="none" xmlns="http://www.w3.org/2000/svg">
<rect width="1363" height="167" rx="15" fill="#E5E5E5"/>
<path d="M0 15C0 6.71573 6.71573 0 15 0H37V167H15C6.71573 167 0 160.284 0 152V15Z" fill="#0F0F0F"/>
<path d="M100.906 50.9219L93.3945 48.2383V45.0859L103.602 49.375V51.6367L100.906 50.9219ZM93.3945 53.1719L100.918 50.4297L103.602 49.7852V52.0352L93.3945 56.3242V53.1719ZM118.578 50.5117H114.195L114.172 48.0977H117.852C118.5 48.0977 119.031 48.0156 119.445 47.8516C119.859 47.6797 120.168 47.4336 120.371 47.1133C120.582 46.7852 120.688 46.3867 120.688 45.918C120.688 45.3867 120.586 44.957 120.383 44.6289C120.188 44.3008 119.879 44.0625 119.457 43.9141C119.043 43.7656 118.508 43.6914 117.852 43.6914H115.414V58H111.898V40.9375H117.852C118.844 40.9375 119.73 41.0312 120.512 41.2188C121.301 41.4062 121.969 41.6914 122.516 42.0742C123.062 42.457 123.48 42.9414 123.77 43.5273C124.059 44.1055 124.203 44.793 124.203 45.5898C124.203 46.293 124.043 46.9414 123.723 47.5352C123.41 48.1289 122.914 48.6133 122.234 48.9883C121.562 49.3633 120.684 49.5703 119.598 49.6094L118.578 50.5117ZM118.426 58H113.234L114.605 55.2578H118.426C119.043 55.2578 119.547 55.1602 119.938 54.9648C120.328 54.7617 120.617 54.4883 120.805 54.1445C120.992 53.8008 121.086 53.4062 121.086 52.9609C121.086 52.4609 121 52.0273 120.828 51.6602C120.664 51.293 120.398 51.0117 120.031 50.8164C119.664 50.6133 119.18 50.5117 118.578 50.5117H115.191L115.215 48.0977H119.434L120.242 49.0469C121.281 49.0312 122.117 49.2148 122.75 49.5977C123.391 49.9727 123.855 50.4609 124.145 51.0625C124.441 51.6641 124.59 52.3086 124.59 52.9961C124.59 54.0898 124.352 55.0117 123.875 55.7617C123.398 56.5039 122.699 57.0625 121.777 57.4375C120.863 57.8125 119.746 58 118.426 58ZM130.578 45.3203V58H127.191V45.3203H130.578ZM126.98 42.0156C126.98 41.5234 127.152 41.1172 127.496 40.7969C127.84 40.4766 128.301 40.3164 128.879 40.3164C129.449 40.3164 129.906 40.4766 130.25 40.7969C130.602 41.1172 130.777 41.5234 130.777 42.0156C130.777 42.5078 130.602 42.9141 130.25 43.2344C129.906 43.5547 129.449 43.7148 128.879 43.7148C128.301 43.7148 127.84 43.5547 127.496 43.2344C127.152 42.9141 126.98 42.5078 126.98 42.0156ZM136.672 48.0273V58H133.297V45.3203H136.461L136.672 48.0273ZM136.18 51.2148H135.266C135.266 50.2773 135.387 49.4336 135.629 48.6836C135.871 47.9258 136.211 47.2812 136.648 46.75C137.086 46.2109 137.605 45.8008 138.207 45.5195C138.816 45.2305 139.496 45.0859 140.246 45.0859C140.84 45.0859 141.383 45.1719 141.875 45.3438C142.367 45.5156 142.789 45.7891 143.141 46.1641C143.5 46.5391 143.773 47.0352 143.961 47.6523C144.156 48.2695 144.254 49.0234 144.254 49.9141V58H140.855V49.9023C140.855 49.3398 140.777 48.9023 140.621 48.5898C140.465 48.2773 140.234 48.0586 139.93 47.9336C139.633 47.8008 139.266 47.7344 138.828 47.7344C138.375 47.7344 137.98 47.8242 137.645 48.0039C137.316 48.1836 137.043 48.4336 136.824 48.7539C136.613 49.0664 136.453 49.4336 136.344 49.8555C136.234 50.2773 136.18 50.7305 136.18 51.2148ZM154.848 45.3203H157.906V57.5781C157.906 58.7344 157.648 59.7148 157.133 60.5195C156.625 61.332 155.914 61.9453 155 62.3594C154.086 62.7812 153.023 62.9922 151.812 62.9922C151.281 62.9922 150.719 62.9219 150.125 62.7812C149.539 62.6406 148.977 62.4219 148.438 62.125C147.906 61.8281 147.461 61.4531 147.102 61L148.59 59.0078C148.98 59.4609 149.434 59.8125 149.949 60.0625C150.465 60.3203 151.035 60.4492 151.66 60.4492C152.27 60.4492 152.785 60.3359 153.207 60.1094C153.629 59.8906 153.953 59.5664 154.18 59.1367C154.406 58.7148 154.52 58.2031 154.52 57.6016V48.25L154.848 45.3203ZM146.316 51.8125V51.5664C146.316 50.5977 146.434 49.7188 146.668 48.9297C146.91 48.1328 147.25 47.4492 147.688 46.8789C148.133 46.3086 148.672 45.8672 149.305 45.5547C149.938 45.2422 150.652 45.0859 151.449 45.0859C152.293 45.0859 153 45.2422 153.57 45.5547C154.141 45.8672 154.609 46.3125 154.977 46.8906C155.344 47.4609 155.629 48.1367 155.832 48.918C156.043 49.6914 156.207 50.5391 156.324 51.4609V52C156.207 52.8828 156.031 53.7031 155.797 54.4609C155.562 55.2188 155.254 55.8828 154.871 56.4531C154.488 57.0156 154.012 57.4531 153.441 57.7656C152.879 58.0781 152.207 58.2344 151.426 58.2344C150.645 58.2344 149.938 58.0742 149.305 57.7539C148.68 57.4336 148.145 56.9844 147.699 56.4062C147.254 55.8281 146.91 55.1484 146.668 54.3672C146.434 53.5859 146.316 52.7344 146.316 51.8125ZM149.691 51.5664V51.8125C149.691 52.3359 149.742 52.8242 149.844 53.2773C149.945 53.7305 150.102 54.1328 150.312 54.4844C150.531 54.8281 150.801 55.0977 151.121 55.293C151.449 55.4805 151.836 55.5742 152.281 55.5742C152.898 55.5742 153.402 55.4453 153.793 55.1875C154.184 54.9219 154.477 54.5586 154.672 54.0977C154.867 53.6367 154.98 53.1055 155.012 52.5039V50.9688C154.996 50.4766 154.93 50.0352 154.812 49.6445C154.695 49.2461 154.531 48.9062 154.32 48.625C154.109 48.3438 153.836 48.125 153.5 47.9688C153.164 47.8125 152.766 47.7344 152.305 47.7344C151.859 47.7344 151.473 47.8359 151.145 48.0391C150.824 48.2344 150.555 48.5039 150.336 48.8477C150.125 49.1914 149.965 49.5977 149.855 50.0664C149.746 50.5273 149.691 51.0273 149.691 51.5664ZM166.367 58.2344C165.383 58.2344 164.5 58.0781 163.719 57.7656C162.938 57.4453 162.273 57.0039 161.727 56.4414C161.188 55.8789 160.773 55.2266 160.484 54.4844C160.195 53.7344 160.051 52.9375 160.051 52.0938V51.625C160.051 50.6641 160.188 49.7852 160.461 48.9883C160.734 48.1914 161.125 47.5 161.633 46.9141C162.148 46.3281 162.773 45.8789 163.508 45.5664C164.242 45.2461 165.07 45.0859 165.992 45.0859C166.891 45.0859 167.688 45.2344 168.383 45.5312C169.078 45.8281 169.66 46.25 170.129 46.7969C170.605 47.3438 170.965 48 171.207 48.7656C171.449 49.5234 171.57 50.3672 171.57 51.2969V52.7031H161.492V50.4531H168.254V50.1953C168.254 49.7266 168.168 49.3086 167.996 48.9414C167.832 48.5664 167.582 48.2695 167.246 48.0508C166.91 47.832 166.48 47.7227 165.957 47.7227C165.512 47.7227 165.129 47.8203 164.809 48.0156C164.488 48.2109 164.227 48.4844 164.023 48.8359C163.828 49.1875 163.68 49.6016 163.578 50.0781C163.484 50.5469 163.438 51.0625 163.438 51.625V52.0938C163.438 52.6016 163.508 53.0703 163.648 53.5C163.797 53.9297 164.004 54.3008 164.27 54.6133C164.543 54.9258 164.871 55.168 165.254 55.3398C165.645 55.5117 166.086 55.5977 166.578 55.5977C167.188 55.5977 167.754 55.4805 168.277 55.2461C168.809 55.0039 169.266 54.6406 169.648 54.1562L171.289 55.9375C171.023 56.3203 170.66 56.6875 170.199 57.0391C169.746 57.3906 169.199 57.6797 168.559 57.9062C167.918 58.125 167.188 58.2344 166.367 58.2344ZM183.125 40.9375H186.629V52.2109C186.629 53.5234 186.348 54.6289 185.785 55.5273C185.23 56.4258 184.461 57.1016 183.477 57.5547C182.5 58.0078 181.375 58.2344 180.102 58.2344C178.828 58.2344 177.695 58.0078 176.703 57.5547C175.719 57.1016 174.945 56.4258 174.383 55.5273C173.828 54.6289 173.551 53.5234 173.551 52.2109V40.9375H177.066V52.2109C177.066 52.9766 177.188 53.6016 177.43 54.0859C177.672 54.5703 178.02 54.9258 178.473 55.1523C178.934 55.3789 179.477 55.4922 180.102 55.4922C180.742 55.4922 181.285 55.3789 181.73 55.1523C182.184 54.9258 182.527 54.5703 182.762 54.0859C183.004 53.6016 183.125 52.9766 183.125 52.2109V40.9375ZM196.168 54.4961C196.168 54.2539 196.098 54.0352 195.957 53.8398C195.816 53.6445 195.555 53.4648 195.172 53.3008C194.797 53.1289 194.254 52.9727 193.543 52.832C192.902 52.6914 192.305 52.5156 191.75 52.3047C191.203 52.0859 190.727 51.8242 190.32 51.5195C189.922 51.2148 189.609 50.8555 189.383 50.4414C189.156 50.0195 189.043 49.5391 189.043 49C189.043 48.4688 189.156 47.9688 189.383 47.5C189.617 47.0312 189.949 46.6172 190.379 46.2578C190.816 45.8906 191.348 45.6055 191.973 45.4023C192.605 45.1914 193.316 45.0859 194.105 45.0859C195.207 45.0859 196.152 45.2617 196.941 45.6133C197.738 45.9648 198.348 46.4492 198.77 47.0664C199.199 47.6758 199.414 48.3711 199.414 49.1523H196.039C196.039 48.8242 195.969 48.5312 195.828 48.2734C195.695 48.0078 195.484 47.8008 195.195 47.6523C194.914 47.4961 194.547 47.418 194.094 47.418C193.719 47.418 193.395 47.4844 193.121 47.6172C192.848 47.7422 192.637 47.9141 192.488 48.1328C192.348 48.3438 192.277 48.5781 192.277 48.8359C192.277 49.0312 192.316 49.207 192.395 49.3633C192.48 49.5117 192.617 49.6484 192.805 49.7734C192.992 49.8984 193.234 50.0156 193.531 50.125C193.836 50.2266 194.211 50.3203 194.656 50.4062C195.57 50.5938 196.387 50.8398 197.105 51.1445C197.824 51.4414 198.395 51.8477 198.816 52.3633C199.238 52.8711 199.449 53.5391 199.449 54.3672C199.449 54.9297 199.324 55.4453 199.074 55.9141C198.824 56.3828 198.465 56.793 197.996 57.1445C197.527 57.4883 196.965 57.7578 196.309 57.9531C195.66 58.1406 194.93 58.2344 194.117 58.2344C192.938 58.2344 191.938 58.0234 191.117 57.6016C190.305 57.1797 189.688 56.6445 189.266 55.9961C188.852 55.3398 188.645 54.668 188.645 53.9805H191.844C191.859 54.4414 191.977 54.8125 192.195 55.0938C192.422 55.375 192.707 55.5781 193.051 55.7031C193.402 55.8281 193.781 55.8906 194.188 55.8906C194.625 55.8906 194.988 55.832 195.277 55.7148C195.566 55.5898 195.785 55.4258 195.934 55.2227C196.09 55.0117 196.168 54.7695 196.168 54.4961Z" fill="#888888"/>
<path d="M109.93 86.0078V118H102.217V86.0078H109.93ZM119.554 86.0078V91.9624H92.813V86.0078H119.554ZM132.012 118.439C130.079 118.439 128.35 118.139 126.827 117.539C125.303 116.923 124.014 116.081 122.959 115.012C121.919 113.942 121.121 112.712 120.564 111.32C120.022 109.929 119.751 108.457 119.751 106.904V106.069C119.751 104.326 119.993 102.714 120.477 101.235C120.96 99.7407 121.678 98.437 122.63 97.3237C123.582 96.2104 124.776 95.3462 126.211 94.731C127.647 94.1011 129.317 93.7861 131.221 93.7861C132.906 93.7861 134.415 94.0571 135.748 94.5991C137.081 95.1411 138.208 95.9175 139.131 96.9282C140.069 97.939 140.779 99.1621 141.263 100.598C141.761 102.033 142.01 103.645 142.01 105.432V108.442H122.586V103.806H134.781V103.234C134.795 102.443 134.656 101.77 134.363 101.213C134.085 100.656 133.675 100.231 133.133 99.9385C132.591 99.6455 131.932 99.499 131.155 99.499C130.35 99.499 129.683 99.6748 129.156 100.026C128.643 100.378 128.24 100.861 127.947 101.477C127.669 102.077 127.471 102.773 127.354 103.564C127.237 104.355 127.178 105.19 127.178 106.069V106.904C127.178 107.783 127.295 108.581 127.53 109.299C127.779 110.017 128.13 110.632 128.584 111.145C129.053 111.643 129.61 112.031 130.254 112.309C130.914 112.587 131.661 112.727 132.496 112.727C133.506 112.727 134.502 112.536 135.484 112.155C136.465 111.774 137.308 111.145 138.011 110.266L141.373 114.265C140.889 114.953 140.201 115.62 139.307 116.264C138.428 116.909 137.374 117.436 136.143 117.846C134.913 118.242 133.536 118.439 132.012 118.439ZM155.062 112.727C155.75 112.727 156.336 112.602 156.819 112.353C157.317 112.089 157.691 111.723 157.94 111.254C158.204 110.771 158.328 110.192 158.313 109.519H165.279C165.293 111.306 164.854 112.873 163.96 114.221C163.082 115.554 161.88 116.594 160.357 117.341C158.848 118.073 157.142 118.439 155.237 118.439C153.377 118.439 151.751 118.139 150.359 117.539C148.968 116.923 147.803 116.074 146.866 114.99C145.943 113.891 145.247 112.609 144.778 111.145C144.324 109.68 144.097 108.09 144.097 106.376V105.871C144.097 104.157 144.324 102.568 144.778 101.103C145.247 99.6235 145.943 98.3418 146.866 97.2578C147.803 96.1592 148.96 95.3096 150.337 94.709C151.729 94.0938 153.348 93.7861 155.193 93.7861C157.171 93.7861 158.914 94.1597 160.423 94.9067C161.946 95.6538 163.14 96.7378 164.004 98.1587C164.869 99.5796 165.293 101.301 165.279 103.322H158.313C158.328 102.604 158.218 101.96 157.984 101.389C157.75 100.817 157.383 100.363 156.885 100.026C156.402 99.6748 155.779 99.499 155.018 99.499C154.256 99.499 153.641 99.6675 153.172 100.004C152.703 100.341 152.344 100.81 152.095 101.411C151.861 101.997 151.7 102.67 151.612 103.432C151.539 104.194 151.502 105.007 151.502 105.871V106.376C151.502 107.255 151.539 108.083 151.612 108.859C151.7 109.621 151.868 110.295 152.117 110.881C152.366 111.452 152.725 111.906 153.194 112.243C153.663 112.565 154.285 112.727 155.062 112.727ZM175.694 84.25V118H168.289V84.25H175.694ZM174.815 105.3L173.079 105.344C173.079 103.674 173.284 102.136 173.694 100.729C174.104 99.3232 174.69 98.1001 175.452 97.0601C176.214 96.02 177.129 95.2144 178.199 94.6431C179.268 94.0718 180.455 93.7861 181.758 93.7861C182.93 93.7861 184 93.9546 184.966 94.2915C185.948 94.6284 186.79 95.1704 187.493 95.9175C188.211 96.6646 188.76 97.6387 189.141 98.8398C189.537 100.041 189.734 101.506 189.734 103.234V118H182.286V103.19C182.286 102.224 182.146 101.477 181.868 100.949C181.604 100.407 181.224 100.034 180.726 99.8286C180.228 99.6089 179.62 99.499 178.902 99.499C178.038 99.499 177.334 99.6455 176.792 99.9385C176.25 100.231 175.833 100.642 175.54 101.169C175.262 101.682 175.071 102.29 174.969 102.993C174.866 103.696 174.815 104.465 174.815 105.3ZM221.88 109.497C221.88 108.999 221.807 108.552 221.661 108.156C221.514 107.746 221.243 107.365 220.848 107.014C220.452 106.662 219.881 106.311 219.134 105.959C218.401 105.593 217.435 105.212 216.233 104.816C214.827 104.348 213.472 103.82 212.168 103.234C210.865 102.634 209.7 101.938 208.675 101.147C207.649 100.341 206.836 99.4038 206.236 98.3345C205.635 97.2505 205.335 95.9907 205.335 94.5552C205.335 93.1782 205.643 91.9404 206.258 90.8418C206.873 89.7285 207.73 88.7837 208.829 88.0073C209.942 87.2163 211.246 86.6157 212.74 86.2056C214.234 85.7808 215.867 85.5684 217.64 85.5684C219.983 85.5684 222.049 85.9785 223.836 86.7988C225.638 87.6045 227.044 88.7544 228.055 90.2485C229.08 91.728 229.593 93.4785 229.593 95.5H221.924C221.924 94.6943 221.756 93.9839 221.419 93.3687C221.097 92.7534 220.606 92.27 219.947 91.9185C219.288 91.5669 218.46 91.3911 217.464 91.3911C216.497 91.3911 215.684 91.5376 215.025 91.8306C214.366 92.1235 213.868 92.519 213.531 93.0171C213.194 93.5005 213.025 94.0352 213.025 94.6211C213.025 95.1045 213.157 95.5439 213.421 95.9395C213.699 96.3203 214.087 96.6792 214.585 97.0161C215.098 97.353 215.713 97.6753 216.431 97.9829C217.164 98.2905 217.984 98.5908 218.892 98.8838C220.591 99.4258 222.1 100.034 223.418 100.708C224.751 101.367 225.872 102.121 226.78 102.971C227.703 103.806 228.399 104.758 228.868 105.827C229.351 106.896 229.593 108.105 229.593 109.453C229.593 110.888 229.314 112.163 228.758 113.276C228.201 114.389 227.403 115.334 226.363 116.11C225.323 116.872 224.078 117.451 222.627 117.846C221.177 118.242 219.559 118.439 217.771 118.439C216.131 118.439 214.512 118.234 212.916 117.824C211.333 117.399 209.898 116.755 208.609 115.891C207.32 115.012 206.287 113.891 205.511 112.529C204.749 111.152 204.368 109.519 204.368 107.629H212.103C212.103 108.566 212.227 109.357 212.476 110.002C212.725 110.646 213.091 111.167 213.575 111.562C214.058 111.943 214.651 112.221 215.354 112.397C216.058 112.558 216.863 112.639 217.771 112.639C218.753 112.639 219.544 112.5 220.145 112.221C220.745 111.928 221.185 111.547 221.463 111.079C221.741 110.595 221.88 110.068 221.88 109.497ZM245.743 94.2256V99.3672H231.417V94.2256H245.743ZM234.427 88.3149H241.832V110.244C241.832 110.874 241.905 111.364 242.051 111.716C242.198 112.053 242.447 112.294 242.798 112.441C243.165 112.573 243.648 112.639 244.249 112.639C244.673 112.639 245.025 112.631 245.303 112.617C245.582 112.587 245.845 112.551 246.094 112.507V117.802C245.464 118.007 244.805 118.161 244.117 118.264C243.428 118.381 242.696 118.439 241.919 118.439C240.337 118.439 238.982 118.19 237.854 117.692C236.741 117.194 235.892 116.411 235.306 115.341C234.72 114.272 234.427 112.88 234.427 111.167V88.3149ZM261.036 112.023V102.224C261.036 101.55 260.94 100.971 260.75 100.488C260.56 100.004 260.259 99.6309 259.849 99.3672C259.439 99.0889 258.89 98.9497 258.201 98.9497C257.645 98.9497 257.168 99.0449 256.773 99.2354C256.377 99.4258 256.077 99.7114 255.872 100.092C255.667 100.473 255.564 100.957 255.564 101.542H248.16C248.16 100.444 248.401 99.4258 248.885 98.4883C249.383 97.5361 250.086 96.7085 250.994 96.0054C251.917 95.3022 253.016 94.7603 254.29 94.3794C255.579 93.9839 257.015 93.7861 258.597 93.7861C260.486 93.7861 262.171 94.1011 263.65 94.731C265.145 95.3608 266.324 96.3057 267.188 97.5654C268.052 98.8105 268.484 100.378 268.484 102.268V112.001C268.484 113.554 268.572 114.733 268.748 115.539C268.924 116.33 269.173 117.026 269.495 117.626V118H262.068C261.717 117.268 261.453 116.374 261.277 115.319C261.116 114.25 261.036 113.151 261.036 112.023ZM261.937 103.476L261.98 107.431H258.707C258.018 107.431 257.432 107.526 256.949 107.717C256.48 107.907 256.099 108.171 255.806 108.508C255.528 108.83 255.323 109.196 255.191 109.606C255.074 110.017 255.015 110.449 255.015 110.903C255.015 111.342 255.118 111.738 255.323 112.089C255.542 112.426 255.835 112.69 256.202 112.88C256.568 113.071 256.978 113.166 257.432 113.166C258.252 113.166 258.948 113.012 259.52 112.705C260.105 112.382 260.552 111.994 260.86 111.54C261.167 111.086 261.321 110.661 261.321 110.266L262.947 113.298C262.654 113.884 262.317 114.477 261.937 115.078C261.57 115.678 261.109 116.235 260.552 116.748C260.01 117.246 259.344 117.656 258.553 117.978C257.762 118.286 256.802 118.439 255.674 118.439C254.209 118.439 252.862 118.139 251.631 117.539C250.416 116.938 249.441 116.103 248.709 115.034C247.977 113.95 247.61 112.705 247.61 111.298C247.61 110.068 247.83 108.969 248.27 108.002C248.724 107.036 249.405 106.215 250.313 105.542C251.221 104.868 252.378 104.355 253.785 104.003C255.191 103.652 256.846 103.476 258.75 103.476H261.937ZM282.635 112.727C283.323 112.727 283.909 112.602 284.393 112.353C284.891 112.089 285.264 111.723 285.513 111.254C285.777 110.771 285.901 110.192 285.887 109.519H292.852C292.867 111.306 292.427 112.873 291.534 114.221C290.655 115.554 289.454 116.594 287.93 117.341C286.421 118.073 284.715 118.439 282.811 118.439C280.95 118.439 279.324 118.139 277.933 117.539C276.541 116.923 275.376 116.074 274.439 114.99C273.516 113.891 272.82 112.609 272.352 111.145C271.897 109.68 271.67 108.09 271.67 106.376V105.871C271.67 104.157 271.897 102.568 272.352 101.103C272.82 99.6235 273.516 98.3418 274.439 97.2578C275.376 96.1592 276.534 95.3096 277.911 94.709C279.302 94.0938 280.921 93.7861 282.767 93.7861C284.744 93.7861 286.487 94.1597 287.996 94.9067C289.52 95.6538 290.713 96.7378 291.578 98.1587C292.442 99.5796 292.867 101.301 292.852 103.322H285.887C285.901 102.604 285.792 101.96 285.557 101.389C285.323 100.817 284.957 100.363 284.458 100.026C283.975 99.6748 283.353 99.499 282.591 99.499C281.829 99.499 281.214 99.6675 280.745 100.004C280.276 100.341 279.917 100.81 279.668 101.411C279.434 101.997 279.273 102.67 279.185 103.432C279.112 104.194 279.075 105.007 279.075 105.871V106.376C279.075 107.255 279.112 108.083 279.185 108.859C279.273 109.621 279.441 110.295 279.69 110.881C279.939 111.452 280.298 111.906 280.767 112.243C281.236 112.565 281.858 112.727 282.635 112.727ZM303.487 84.228V118H296.082V84.228H303.487ZM318.692 94.2256L308.365 106.333L302.959 111.738L299.729 107.036L304.234 101.169L309.815 94.2256H318.692ZM310.76 118L304.41 107.167L309.881 103.278L319.241 118H310.76Z" fill="#0F0F0F"/>
<path d="M1363 15C1363 6.71573 1356.28 0 1348 0H1134V167H1348C1356.28 167 1363 160.284 1363 152V15Z" fill="#217DDD"/>
<path fill-rule="evenodd" clip-rule="evenodd" d="M1218.5 55C1218.37 55 1218.24 55.0527 1218.15 55.1464C1218.05 55.2402 1218 55.3674 1218 55.5V111.5C1218 111.633 1218.05 111.76 1218.15 111.854C1218.24 111.947 1218.37 112 1218.5 112H1278C1278.13 112 1278.26 111.947 1278.35 111.854C1278.45 111.76 1278.5 111.633 1278.5 111.5V66C1278.5 65.8674 1278.45 65.7402 1278.35 65.6464C1278.26 65.5527 1278.13 65.5 1278 65.5H1248.25C1247.36 65.5 1246.52 65.1045 1245.95 64.4206L1238.09 55H1218.5ZM1213.9 50.9038C1215.12 49.6848 1216.78 49 1218.5 49H1239.5C1240.39 49 1241.23 49.3955 1241.8 50.0794L1249.66 59.5H1278C1279.72 59.5 1281.38 60.1848 1282.6 61.4038C1283.82 62.6228 1284.5 64.2761 1284.5 66V111.5C1284.5 113.224 1283.82 114.877 1282.6 116.096C1281.38 117.315 1279.72 118 1278 118H1218.5C1216.78 118 1215.12 117.315 1213.9 116.096C1212.68 114.877 1212 113.224 1212 111.5V55.5C1212 53.7761 1212.68 52.1228 1213.9 50.9038Z" fill="white"/>
<path fill-rule="evenodd" clip-rule="evenodd" d="M1243.72 77.5251C1245.09 78.892 1245.09 81.108 1243.72 82.4749L1237.45 88.75L1243.72 95.0251C1245.09 96.392 1245.09 98.608 1243.72 99.9749C1242.36 101.342 1240.14 101.342 1238.78 99.9749L1230.03 91.2249C1228.66 89.858 1228.66 87.642 1230.03 86.2751L1238.78 77.5251C1240.14 76.1583 1242.36 76.1583 1243.72 77.5251Z" fill="white"/>
<path fill-rule="evenodd" clip-rule="evenodd" d="M1252.03 99.9749C1250.66 98.608 1250.66 96.392 1252.03 95.0251L1258.3 88.75L1252.03 82.4749C1250.66 81.108 1250.66 78.892 1252.03 77.5251C1253.39 76.1583 1255.61 76.1583 1256.97 77.5251L1265.72 86.2751C1267.09 87.642 1267.09 89.858 1265.72 91.2249L1256.97 99.9749C1255.61 101.342 1253.39 101.342 1252.03 99.9749Z" fill="white"/>
</svg>
